<svg width="164" height="161" viewBox="0 0 164 161" fill="none" xmlns="http://www.w3.org/2000/svg">
<ellipse cx="56.4454" cy="63.5435" rx="56.4454" ry="63.5435" transform="matrix(0.894486 0.447095 -0.495679 0.868506 62.9944 0)" fill="#757575"/>
<ellipse cx="37.6365" cy="46.046" rx="37.6365" ry="46.046" transform="matrix(0.894486 0.447095 -0.495679 0.868506 70.8765 23.4716)" fill="#EBEBEB"/>
<ellipse cx="84.4737" cy="80.8488" rx="6.5" ry="7" fill="#757575"/>
<rect x="81.9737" y="40.8488" width="6" height="10" fill="#757575"/>
<rect x="100.009" y="44.8488" width="6" height="10" transform="rotate(30.2319 100.009 44.8488)" fill="#757575"/>
<rect x="115.037" y="57.1419" width="6" height="10" transform="rotate(54.2532 115.037 57.1419)" fill="#757575"/>
<rect x="119.071" y="77.0708" width="6" height="10" transform="rotate(86.1549 119.071 77.0708)" fill="#757575"/>
<rect x="114.553" y="96.9777" width="6" height="10" transform="rotate(127.799 114.553 96.9777)" fill="#757575"/>
<rect x="101.481" y="110.555" width="6" height="10" transform="rotate(151.099 101.481 110.555)" fill="#757575"/>
<rect x="81.9663" y="119.133" width="6" height="10" transform="rotate(-177.169 81.9663 119.133)" fill="#757575"/>
<rect x="61.6564" y="116.405" width="6" height="10" transform="rotate(-141.302 61.6564 116.405)" fill="#757575"/>
<rect x="49.6736" y="101.707" width="6" height="10" transform="rotate(-116.743 49.6736 101.707)" fill="#757575"/>
<rect x="45.8924" y="83.7014" width="6" height="10" transform="rotate(-87.2749 45.8924 83.7014)" fill="#757575"/>
<rect x="49.8852" y="65.2893" width="6" height="10" transform="rotate(-58.0134 49.8852 65.2893)" fill="#757575"/>
<rect x="62.9737" y="49.0298" width="6" height="10" transform="rotate(-32.0166 62.9737 49.0298)" fill="#757575"/>
<rect x="82.4089" y="81.8488" width="1.92433" height="29.1571" transform="rotate(34.3107 82.4089 81.8488)" fill="#757575"/>
<rect x="140.4" y="18.8488" width="17.0501" height="105.118" transform="rotate(5.69212 140.4 18.8488)" fill="#757575"/>
<ellipse cx="137.748" cy="137.344" rx="9.39066" ry="10.2442" transform="rotate(5.81804 137.748 137.344)" fill="#757575"/>
</svg>
